<?xml version="1.0" ?><svg data-name="Layer 1" id="Layer_1" viewBox="0 0 512 512" xmlns="http://www.w3.org/2000/svg"><defs><style>.cls-1,.cls-2{fill:none;stroke:#231f20;stroke-linejoin:round;stroke-width:9.92px;}.cls-2{stroke-linecap:square;}</style></defs><title/><rect class="cls-1" height="193.59" width="423.08" x="44.46" y="159.75"/><rect class="cls-1" height="30.27" width="423.08" x="44.46" y="159.75"/><rect class="cls-1" height="30.27" width="423.08" x="44.46" y="323.07"/><polyline class="cls-1" points="131.57 239.85 131.57 225.3 87.76 225.3 87.76 287.78 131.57 287.78 131.57 256.54 113.95 256.54"/><polyline class="cls-1" points="155.21 287.78 155.21 225.3 199.02 225.3 199.02 287.78"/><line class="cls-1" x1="155.21" x2="199.02" y1="256.54" y2="256.54"/><line class="cls-2" x1="220.57" x2="264.39" y1="225.3" y2="225.3"/><line class="cls-1" x1="242.48" x2="242.48" y1="225.3" y2="287.78"/><polyline class="cls-1" points="328.79 225.3 284.98 225.3 284.98 287.78 328.79 287.78"/><line class="cls-1" x1="284.98" x2="328.79" y1="256.54" y2="256.54"/><polyline class="cls-1" points="377.55 256.54 401.51 225.3 425.47 256.54"/><line class="cls-1" x1="401.51" x2="401.51" y1="225.3" y2="287.78"/></svg>